<svg xmlns="http://www.w3.org/2000/svg" xmlns:xlink="http://www.w3.org/1999/xlink" width="39.84" height="30.56" viewBox="0 0 39.84 30.56"><defs><style>.a{fill:none;}.b{clip-path:url(#a);}.c{fill:#fdfcfc;}</style><clipPath id="a"><rect class="a" width="39.84" height="30.56"/></clipPath></defs><g class="b"><path class="c" d="M12.84-4.28v-22a4.367,4.367,0,0,0-1.08-3.16,4.3,4.3,0,0,0-3.24-1.12H1.24V0H8.52a4.364,4.364,0,0,0,3.22-1.1A4.306,4.306,0,0,0,12.84-4.28ZM8.92-5.12q0,1.6-1.72,1.6H5.12V-27.04H7.28a1.432,1.432,0,0,1,1.64,1.6ZM26.64-2.6v-9.44a3.726,3.726,0,0,0-.32-1.72A4.083,4.083,0,0,0,25.16-15l-1.44-1,1.36-.96a3.692,3.692,0,0,0,1.14-1.16,3.785,3.785,0,0,0,.3-1.72v-8.12a2.281,2.281,0,0,0-2.56-2.6H15.2V0h8.84A2.3,2.3,0,0,0,26.64-2.6Zm-4-16.4-1.6,1.28H19.08v-9.36h3.56Zm.08,15.52H19.08V-14.2h2l1.64,1.24ZM41.08,0V-.16L36.32-15.8,40.6-30.4v-.16H36.48L32.96-17.12V-30.56H29.08V0h3.88V-14.24L36.88,0Z" transform="translate(-1.24 30.56)"/></g></svg>