<svg xmlns="http://www.w3.org/2000/svg" xmlns:xlink="http://www.w3.org/1999/xlink" width="65.64" height="30.6" viewBox="0 0 65.64 30.6"><defs><style>.a{fill:none;}.b{clip-path:url(#a);}.c{fill:#e51d37;}.d{fill:#fdfcfc;}</style><clipPath id="a"><rect class="a" width="65.64" height="30.6"/></clipPath></defs><g class="b"><path class="c" d="M-1.54-26.92v-3.64H-12.46v3.64h3.52V0h3.88V-26.92ZM12.3-30.48v-.08H8.38L6.18-11q0,.08-.02.52t-.04.96Q6.1-9,6.08-8.6l-.02.4-.02-.4Q6.02-9,6-9.52t-.04-.96q-.02-.44-.02-.52L3.74-30.56H-.18v.08L4.1.04H7.98Z" transform="translate(53.34 30.56)"/><path class="d" d="M-7.74-4.28v-22a4.367,4.367,0,0,0-1.08-3.16,4.3,4.3,0,0,0-3.24-1.12h-7.28V0h7.28A4.364,4.364,0,0,0-8.84-1.1,4.306,4.306,0,0,0-7.74-4.28Zm-3.92-.84q0,1.6-1.72,1.6h-2.08V-27.04h2.16a1.432,1.432,0,0,1,1.64,1.6ZM6.06-2.6v-9.44a3.726,3.726,0,0,0-.32-1.72A4.083,4.083,0,0,0,4.58-15L3.14-16l1.36-.96a3.692,3.692,0,0,0,1.14-1.16,3.785,3.785,0,0,0,.3-1.72v-8.12a2.281,2.281,0,0,0-2.56-2.6H-5.38V0H3.46A2.3,2.3,0,0,0,6.06-2.6ZM2.06-19,.46-17.72H-1.5v-9.36H2.06ZM2.14-3.48H-1.5V-14.2h2l1.64,1.24ZM20.5,0V-.16L15.74-15.8l4.28-14.6v-.16H15.9L12.38-17.12V-30.56H8.5V0h3.88V-14.24L16.3,0Z" transform="translate(19.34 30.56)"/></g></svg>