<svg xmlns="http://www.w3.org/2000/svg" xmlns:xlink="http://www.w3.org/1999/xlink" width="172.3" height="30.64" viewBox="0 0 172.3 30.64"><defs><style>.a{fill:none;}.b{clip-path:url(#a);}.c{fill:#e51d37;}.d{fill:#fdfcfc;}</style><clipPath id="a"><rect class="a" width="172.3" height="30.64"/></clipPath></defs><g class="b"><path class="c" d="M-1.54-26.92v-3.64H-12.46v3.64h3.52V0h3.88V-26.92ZM12.3-30.48v-.08H8.38L6.18-11q0,.08-.02.52t-.04.96Q6.1-9,6.08-8.6l-.02.4-.02-.4Q6.02-9,6-9.52t-.04-.96q-.02-.44-.02-.52L3.74-30.56H-.18v.08L4.1.04H7.98Z" transform="translate(160 30.6)"/><path class="d" d="M-61.4-4.28v-22a4.367,4.367,0,0,0-1.08-3.16,4.3,4.3,0,0,0-3.24-1.12H-73V0h7.28A4.364,4.364,0,0,0-62.5-1.1,4.306,4.306,0,0,0-61.4-4.28Zm-3.92-.84q0,1.6-1.72,1.6h-2.08V-27.04h2.16a1.432,1.432,0,0,1,1.64,1.6ZM-55.12,0V-30.56H-59V0Zm14.48,0V-.08l-4.4-30.52h-3.8L-53.28-.08V0h3.8l.6-5.88h3.8l.6,5.88Zm-4.84-9.48h-3l1.16-10.76.32-3.4.32,3.4ZM-24.2,0V-30.56h-3.84L-31-18.08a19.053,19.053,0,0,0-.4,2.14q-.12.98-.16,2.14-.04-1.16-.16-2.14a19.053,19.053,0,0,0-.4-2.14l-2.92-12.48h-3.8V0h3.8V-12.44q0-.52-.06-1.3t-.14-1.52q-.08-.74-.14-1.26l-.06-.52,2.8,13.92h2.2l2.8-13.92-.06.52q-.06.52-.14,1.26t-.14,1.52q-.06.78-.06,1.3V0Zm14.12-2.6V-27.96a2.281,2.281,0,0,0-2.56-2.6h-6.64q-2.52,0-2.52,2.6V-2.6q0,2.6,2.52,2.6h6.64A2.281,2.281,0,0,0-10.08-2.6ZM-14-3.52h-3.92V-27.04H-14ZM4.48,0V-30.56H.68v14.8a9.16,9.16,0,0,0,.1,1.14q.1.74.18,1.26t.08.6L-4-30.56H-7.6V0h3.8V-15.04a9.16,9.16,0,0,0-.1-1.14q-.1-.74-.2-1.26a6.073,6.073,0,0,1-.1-.6L.88,0ZM18.56-4.28v-22a4.367,4.367,0,0,0-1.08-3.16,4.3,4.3,0,0,0-3.24-1.12H6.96V0h7.28a4.364,4.364,0,0,0,3.22-1.1A4.306,4.306,0,0,0,18.56-4.28Zm-3.92-.84q0,1.6-1.72,1.6H10.84V-27.04H13a1.432,1.432,0,0,1,1.64,1.6ZM32.36-2.6v-9.44a3.726,3.726,0,0,0-.32-1.72A4.083,4.083,0,0,0,30.88-15l-1.44-1,1.36-.96a3.692,3.692,0,0,0,1.14-1.16,3.785,3.785,0,0,0,.3-1.72v-8.12a2.281,2.281,0,0,0-2.56-2.6H20.92V0h8.84A2.3,2.3,0,0,0,32.36-2.6Zm-4-16.4-1.6,1.28H24.8v-9.36h3.56Zm.08,15.52H24.8V-14.2h2l1.64,1.24ZM46.6,0V-.08L42.2-30.6H38.4L33.96-.08V0h3.8l.6-5.88h3.8L42.76,0ZM41.76-9.48h-3l1.16-10.76.32-3.4.32,3.4Zm18,6.88v-7.64H55.84v6.72H52.16V-27.04h3.68v6.32h3.92v-7.24a2.3,2.3,0,0,0-2.6-2.6H50.8q-2.52,0-2.52,2.6V-2.6Q48.28,0,50.8,0h6.36A2.3,2.3,0,0,0,59.76-2.6ZM74.16,0V-.16L69.4-15.8l4.28-14.6v-.16H69.56L66.04-17.12V-30.56H62.16V0h3.88V-14.24L69.96,0Z" transform="translate(73 30.6)"/></g></svg>