<svg xmlns="http://www.w3.org/2000/svg" xmlns:xlink="http://www.w3.org/1999/xlink" width="191.24" height="30.6" viewBox="0 0 191.24 30.6"><defs><style>.a{fill:none;}.b{clip-path:url(#a);}.c{fill:#fdfcfc;}</style><clipPath id="a"><rect class="a" width="191.24" height="30.6"/></clipPath></defs><g class="b"><path class="c" d="M11.28-26.92v-3.64H.36v3.64H3.88V0H7.76V-26.92ZM24.56,0V-30.56H20.64v12.68H16.72V-30.56H12.84V0h3.88V-14.08h3.92V0ZM36.28,0V-3.64h-5.4V-13.96H35.6v-3.6H30.88v-9.36h5.28v-3.64H27V0ZM56.04-4.28v-22a4.367,4.367,0,0,0-1.08-3.16,4.3,4.3,0,0,0-3.24-1.12H44.44V0h7.28a4.364,4.364,0,0,0,3.22-1.1A4.306,4.306,0,0,0,56.04-4.28Zm-3.92-.84q0,1.6-1.72,1.6H48.32V-27.04h2.16a1.432,1.432,0,0,1,1.64,1.6ZM62.32,0V-30.56H58.44V0ZM76.8,0V-.08L72.4-30.6H68.6L64.16-.08V0h3.8l.6-5.88h3.8L72.96,0ZM71.96-9.48h-3l1.16-10.76.32-3.4.32,3.4ZM93.24,0V-30.56H89.4L86.44-18.08a19.053,19.053,0,0,0-.4,2.14q-.12.98-.16,2.14-.04-1.16-.16-2.14a19.053,19.053,0,0,0-.4-2.14L82.4-30.56H78.6V0h3.8V-12.44q0-.52-.06-1.3t-.14-1.52q-.08-.74-.14-1.26L82-17.04,84.8-3.12H87l2.8-13.92-.06.52q-.06.52-.14,1.26t-.14,1.52q-.06.78-.06,1.3V0Zm14.12-2.6V-27.96a2.281,2.281,0,0,0-2.56-2.6H98.16q-2.52,0-2.52,2.6V-2.6q0,2.6,2.52,2.6h6.64A2.281,2.281,0,0,0,107.36-2.6Zm-3.92-.92H99.52V-27.04h3.92ZM121.92,0V-30.56h-3.8v14.8a9.159,9.159,0,0,0,.1,1.14q.1.74.18,1.26t.08.6l-5.04-17.8h-3.6V0h3.8V-15.04a9.16,9.16,0,0,0-.1-1.14q-.1-.74-.2-1.26a6.073,6.073,0,0,1-.1-.6L118.32,0ZM136-4.28v-22a4.367,4.367,0,0,0-1.08-3.16,4.3,4.3,0,0,0-3.24-1.12H124.4V0h7.28a4.364,4.364,0,0,0,3.22-1.1A4.306,4.306,0,0,0,136-4.28Zm-3.92-.84q0,1.6-1.72,1.6h-2.08V-27.04h2.16a1.432,1.432,0,0,1,1.64,1.6ZM149.8-2.6v-9.44a3.726,3.726,0,0,0-.32-1.72A4.083,4.083,0,0,0,148.32-15l-1.44-1,1.36-.96a3.692,3.692,0,0,0,1.14-1.16,3.785,3.785,0,0,0,.3-1.72v-8.12a2.281,2.281,0,0,0-2.56-2.6h-8.76V0h8.84A2.3,2.3,0,0,0,149.8-2.6Zm-4-16.4-1.6,1.28h-1.96v-9.36h3.56Zm.08,15.52h-3.64V-14.2h2l1.64,1.24ZM164.04,0V-.08l-4.4-30.52h-3.8L151.4-.08V0h3.8l.6-5.88h3.8L160.2,0ZM159.2-9.48h-3l1.16-10.76.32-3.4.32,3.4Zm18,6.88v-7.64h-3.92v6.72H169.6V-27.04h3.68v6.32h3.92v-7.24a2.3,2.3,0,0,0-2.6-2.6h-6.36q-2.52,0-2.52,2.6V-2.6q0,2.6,2.52,2.6h6.36A2.3,2.3,0,0,0,177.2-2.6ZM191.6,0V-.16L186.84-15.8l4.28-14.6v-.16H187l-3.52,13.44V-30.56H179.6V0h3.88V-14.24L187.4,0Z" transform="translate(-0.36 30.6)"/></g></svg>