<svg xmlns="http://www.w3.org/2000/svg" xmlns:xlink="http://www.w3.org/1999/xlink" width="1080" height="504" viewBox="0 0 1080 504"><defs><style>.a{fill:none;}.b{clip-path:url(#c);}.c{clip-path:url(#a);}.d{fill:#e51d37;}.e{fill:#fff;}</style><clipPath id="a"><rect class="a" width="1080" height="503.921"/></clipPath><clipPath id="c"><rect width="1080" height="504"/></clipPath></defs><g id="b" class="b"><g class="c" transform="translate(0 -0.221)"><path class="d" d="M167.371,29.384V-30.56H-12.46V29.384H45.507V472.7h63.9V29.384ZM395.288-29.243V-30.56H330.733L294.5,291.554q0,1.317-.329,8.563t-.659,15.809q-.329,8.563-.659,15.151l-.329,6.587-.329-6.587q-.329-6.587-.659-15.151t-.659-15.809q-.329-7.246-.329-8.563L254.322-30.56H189.767v1.317l70.483,502.6h63.9Z" transform="translate(684.712 30.56)"/><path class="e" d="M171.689,402.219V39.923q0-33.595-17.785-52.039T100.547-30.56H-19.34V472.7H100.547q34.912,0,53.027-18.115T171.689,402.219Zm-64.555-13.833q0,26.349-28.325,26.349H44.556V27.407H80.127q27.008,0,27.008,26.349Zm291.813,41.5V274.427q0-18.444-5.27-28.325t-19.1-20.42l-23.714-16.468,22.4-15.809q13.833-9.881,18.773-19.1t4.94-28.325V12.257q0-42.817-42.158-42.817H210.553V472.7H356.131Q398.947,472.7,398.947,429.885ZM333.075,159.81l-26.349,21.079H274.449V26.749h58.626Zm1.317,255.583H274.449V238.857h32.936l27.008,20.42ZM636.745,472.7v-2.635l-78.388-257.56L628.841-27.925V-30.56H560.993L503.025,190.77V-30.56h-63.9V472.7h63.9V238.2L567.58,472.7Z" transform="translate(19.34 30.56)"/></g></g></svg>