<svg xmlns="http://www.w3.org/2000/svg" xmlns:xlink="http://www.w3.org/1999/xlink" width="1080" height="173" viewBox="0 0 1080 173"><defs><style>.a{fill:none;}.b{clip-path:url(#c);}.c{clip-path:url(#a);}.d{fill:#e51d37;}.e{fill:#fff;}</style><clipPath id="a"><rect class="a" width="1080" height="172.64"/></clipPath><clipPath id="c"><rect width="1080" height="173"/></clipPath></defs><g id="b" class="b"><g class="c" transform="translate(0 0)"><path class="d" d="M61.378-10.051V-30.56H-12.46v20.509h23.8v151.68H37.577V-10.051ZM154.96-30.109v-.451H128.454L113.578,79.65q0,.451-.135,2.93t-.27,5.409q-.135,2.93-.27,5.184l-.135,2.254-.135-2.254q-.135-2.254-.27-5.184t-.27-5.409q-.135-2.479-.135-2.93L97.08-30.56H70.574v.451l28.94,171.964h26.235Z" transform="translate(925.04 30.785)"/><path class="e" d="M-1.065,117.7V-6.259q0-11.494-6.7-17.8t-20.092-6.311H-73V141.815h45.145q13.147,0,19.968-6.2T-1.065,117.7Zm-24.309-4.733q0,9.015-10.666,9.015h-12.9V-10.541h13.395q10.17,0,10.17,9.015Zm63.253,28.848V-30.375H13.818V141.815Zm89.795,0v-.451L100.388-30.6H76.823L49.289,141.364v.451H72.854l3.721-33.131H100.14l3.721,33.131ZM97.659,88.4h-18.6l7.193-60.627L88.233,8.616l1.984,19.157Zm131.963,53.415V-30.375H205.809L187.454,39.943A98.59,98.59,0,0,0,184.973,52q-.744,5.522-.992,12.058-.248-6.536-.992-12.058a98.59,98.59,0,0,0-2.481-12.058L162.4-30.375H138.836V141.815H162.4V71.722q0-2.93-.372-7.325t-.868-8.564q-.5-4.169-.868-7.1l-.372-2.93,17.364,78.432h13.643L208.29,45.8l-.372,2.93q-.372,2.93-.868,7.1t-.868,8.564q-.372,4.395-.372,7.325v70.093Zm87.562-14.65V-15.725q0-14.65-15.875-14.65H260.133q-15.627,0-15.627,14.65v142.89q0,14.65,15.627,14.65h41.176Q317.184,141.815,317.184,127.165Zm-24.309-5.184H268.566V-10.541h24.309Zm114.6,19.833V-30.375H383.91v83.39a47,47,0,0,0,.62,6.423q.62,4.17,1.116,7.1t.5,3.381L354.888-30.375H332.564V141.815h23.565V57.072a47.019,47.019,0,0,0-.62-6.423q-.62-4.17-1.24-7.1a31.34,31.34,0,0,1-.62-3.381l31.5,101.646ZM494.789,117.7V-6.259q0-11.494-6.7-17.8T468-30.375H422.854V141.815H468q13.147,0,19.968-6.2T494.789,117.7Zm-24.309-4.733q0,9.015-10.666,9.015h-12.9V-10.541H460.31q10.17,0,10.17,9.015Zm109.887,14.2V73.976q0-6.311-1.984-9.691T571.189,57.3l-8.93-5.634,8.434-5.409q5.209-3.381,7.07-6.536t1.86-9.691V-15.725q0-14.65-15.875-14.65H509.424V141.815h54.819Q580.367,141.815,580.367,127.165ZM555.562,34.76l-9.922,7.212H533.485V-10.767h22.077Zm.5,87.447H533.485v-60.4h12.4l10.17,6.987Zm112.615,19.608v-.451L641.387-30.6H617.822L590.289,141.364v.451h23.565l3.721-33.131h23.565l3.721,33.131ZM638.659,88.4h-18.6l7.193-60.627,1.984-19.157,1.984,19.157Zm111.623,38.765V84.118H725.973v37.864H703.152V-10.541h22.821v35.61h24.309V-15.725q0-14.65-16.123-14.65h-39.44q-15.627,0-15.627,14.65v142.89q0,14.65,15.627,14.65h39.44Q750.282,141.815,750.282,127.165Zm89.3,14.65v-.9L810.062,52.79,836.6-29.473v-.9H811.054L789.226,45.353V-30.375H765.165V141.815h24.061V61.58l24.309,80.235Z" transform="translate(73 30.6)"/></g></g></svg>